<?xml version="1.0" encoding="utf-8"?><!-- Uploaded to: SVG Repo, www.svgrepo.com, Generator: SVG Repo Mixer Tools -->
<svg width="800px" height="800px" viewBox="0 0 24 24" fill="none" xmlns="http://www.w3.org/2000/svg">
<path fill-rule="evenodd" clip-rule="evenodd" d="M12 3.53846C7.32682 3.53846 3.53846 7.32682 3.53846 12C3.53846 16.6732 7.32682 20.4615 12 20.4615C16.6732 20.4615 20.4615 16.6732 20.4615 12C20.4615 7.32682 16.6732 3.53846 12 3.53846ZM2 12C2 6.47715 6.47715 2 12 2C17.5228 2 22 6.47715 22 12C22 17.5228 17.5228 22 12 22C6.47715 22 2 17.5228 2 12Z" fill="black"/>
<path fill-rule="evenodd" clip-rule="evenodd" d="M8.30769 14.6154C8.56259 14.2755 9.04475 14.2066 9.38462 14.4615C9.84732 14.8086 10.2266 15.0172 10.6098 15.145C10.993 15.2727 11.4216 15.3333 12 15.3333C12.5784 15.3333 13.007 15.2727 13.3902 15.145C13.7734 15.0172 14.1527 14.8086 14.6154 14.4615C14.9553 14.2066 15.4374 14.2755 15.6923 14.6154C15.9472 14.9553 15.8783 15.4374 15.5385 15.6923C14.9879 16.1052 14.462 16.4094 13.8767 16.6045C13.2914 16.7996 12.6882 16.8718 12 16.8718C11.3118 16.8718 10.7086 16.7996 10.1233 16.6045C9.53802 16.4094 9.01212 16.1052 8.46154 15.6923C8.12167 15.4374 8.05279 14.9553 8.30769 14.6154Z" fill="black"/>
<path d="M9.94872 8.92308C9.94872 9.48952 9.48952 9.94872 8.92308 9.94872C8.35663 9.94872 7.89744 9.48952 7.89744 8.92308C7.89744 8.35663 8.35663 7.89744 8.92308 7.89744C9.48952 7.89744 9.94872 8.35663 9.94872 8.92308Z" fill="black"/>
<path d="M16.1026 8.92308C16.1026 9.48952 15.6434 9.94872 15.0769 9.94872C14.5105 9.94872 14.0513 9.48952 14.0513 8.92308C14.0513 8.35663 14.5105 7.89744 15.0769 7.89744C15.6434 7.89744 16.1026 8.35663 16.1026 8.92308Z" fill="black"/>
</svg>